<svg width="32" height="32" viewBox="0 0 32 32" fill="none" xmlns="http://www.w3.org/2000/svg">
<path d="M22.9923 21.5207L22.2601 12.2944C22.2144 11.6999 21.7118 11.2343 21.1156 11.2343H19.6694V11.1693C19.6694 9.42173 18.2476 8 16.5001 8C14.7525 8 13.3308 9.42173 13.3308 11.1693V11.2343H11.8846C11.2884 11.2343 10.7857 11.6999 10.7402 12.2931L10.0077 21.522C9.95107 22.2609 10.2074 22.9965 10.711 23.5402C11.2146 24.0839 11.9285 24.3958 12.6696 24.3958H20.3305C21.0716 24.3958 21.7855 24.084 22.2891 23.5402C22.7927 22.9965 23.049 22.2609 22.9923 21.5207ZM14.2911 11.1693C14.2911 9.95129 15.2821 8.96037 16.5001 8.96037C17.718 8.96037 18.709 9.95132 18.709 11.1693V11.2343H14.2911V11.1693ZM21.5845 22.8877C21.2573 23.2409 20.812 23.4354 20.3305 23.4354H12.6696C12.1881 23.4354 11.7428 23.2409 11.4156 22.8877C11.0884 22.5344 10.9285 22.0755 10.9653 21.5967L11.6976 12.3678C11.7051 12.2707 11.7872 12.1947 11.8846 12.1947H13.3308V13.3774C13.3308 13.6426 13.5458 13.8576 13.811 13.8576C14.0761 13.8576 14.2911 13.6426 14.2911 13.3774V12.1947H18.709V13.3774C18.709 13.6426 18.924 13.8576 19.1892 13.8576C19.4544 13.8576 19.6694 13.6426 19.6694 13.3774V12.1947H21.1156C21.213 12.1947 21.2951 12.2707 21.3026 12.3691L22.0348 21.5954C22.0717 22.0755 21.9117 22.5344 21.5845 22.8877Z" fill="white" stroke="white" stroke-width="0.4"/>
<path d="M18.6636 16.1431C18.4762 15.9556 18.1721 15.9556 17.9846 16.1431L15.8405 18.2872L15.016 17.4628C14.8285 17.2752 14.5245 17.2752 14.3369 17.4628C14.1494 17.6503 14.1494 17.9543 14.3369 18.1418L15.5009 19.3058C15.5947 19.3996 15.7176 19.4465 15.8404 19.4465C15.9633 19.4465 16.0862 19.3996 16.18 19.3058L18.6636 16.8222C18.8512 16.6346 18.8512 16.3306 18.6636 16.1431Z" fill="white" stroke="white" stroke-width="0.4"/>
</svg>
